<?xml version="1.0" encoding="UTF-8"?>
<svg width="165px" height="166px" viewBox="0 0 165 166" version="1.1" xmlns="http://www.w3.org/2000/svg" xmlns:xlink="http://www.w3.org/1999/xlink">
    <title>AB820900-32E9-4F43-81EC-E405E2FC1179</title>
    <g id="User-app" stroke="none" stroke-width="1" fill="none" fill-rule="evenodd">
        <g id="UA0.1" transform="translate(-98.000000, -159.000000)">
            <g id="Group-2" transform="translate(98.000000, 159.000000)">
                <g id="Asset-4" fill-rule="nonzero">
                    <path d="M98.0346007,70.2463293 C98.0346007,70.2463293 88.9972483,88.3016182 79.816416,100.765178 C76.1633396,105.72534 72.4876084,109.799421 69.3508712,111.498055 C66.2802103,113.160869 63.6805792,115.744639 61.5293231,118.607431 C55.9600335,126.018451 53.3877768,135.29778 53.3877768,135.29778 L29.9118051,99.8319667 C29.9118051,99.8319667 30.7132164,65.1626823 33.5318433,59.3635731 C37.6399024,50.9128231 39.6240798,33.8407056 41.2023599,30.4377823 C42.3728546,27.9162255 45.7163163,14.8899105 46.0372584,13.9331328 C46.1769626,13.5202574 47.2889327,12.8886888 48.7341161,12.8886888 C49.8932835,12.8886888 51.8614139,14.0076013 52.3579302,16.3076381 C54.8688303,27.9313077 51.8472546,35.5977829 51.8859565,35.9390179 C52.7666594,44.8695706 50.1047278,51.5029145 51.9718557,53.2590492 C52.0407639,53.3240912 52.1700847,53.2929841 52.3494347,53.1770397 C55.5862303,51.103236 75.6724869,21.8588335 78.146573,21.227266 C80.7622513,20.5617635 98.0346007,70.2463293 98.0346007,70.2463293 Z" id="Path" fill="#FFB27D"></path>
                    <path d="M60.4503912,128.278897 C60.4503912,128.278897 60.130393,144.039805 59.2147641,165.267071 L0,165.267071 C13.5352617,136.443086 25.3025099,112.18241 25.3025099,112.18241 C25.3025099,112.18241 59.019367,113.210828 60.4503912,128.278897 Z" id="Path" fill="#2B68B0"></path>
                    <path d="M118.559793,9.14358897 L111.291398,19.7859724 L104.157987,30.2294593 C103.722828,30.753566 103.219704,30.9364378 102.675046,30.8836501 C100.962726,30.7215163 98.8454515,28.2555752 97.1944875,26.8906353 L97.0264649,26.7539528 C94.8492073,24.9441956 94.5438933,21.7184197 96.343047,19.5333454 L107.244695,6.37034786 L107.244695,6.37034786 L110.478659,2.46782638 C112.289931,0.291407169 115.521815,-0.0144396602 117.71024,1.78347117 L117.878263,1.92015368 C120.056263,3.73095543 120.360773,6.95841174 118.559793,9.14358897 Z" id="Path" fill="#FFB27D"></path>
                    <path d="M111.291398,19.7840871 L104.157987,30.227574 C103.722828,30.7516807 103.219704,30.9345525 102.675046,30.8817648 L107.246583,6.37317578 C107.255079,6.50420246 108.031948,17.505731 111.291398,19.7840871 Z" id="Path" fill="#EFA26F"></path>
                    <path d="M79.816416,100.768006 C76.1633396,105.728168 72.4876084,109.802249 69.3508712,111.500883 C66.2802103,113.163697 63.6805792,115.747467 61.5293231,118.610259 C59.055237,117.458355 56.2347221,116.106612 53.4783957,114.769009 C50.1217188,113.139188 49.992398,108.379808 53.2801668,106.61519 L53.3745615,106.563345 C56.4556058,104.802497 59.6131099,98.5867419 59.6131099,98.5867419 L79.816416,100.768006 Z" id="Path" fill="#EFA26F"></path>
                    <path d="M45.8758434,14.4723218 L43.9737894,22.1406822 C43.9737894,22.1406822 45.6360808,22.8203243 46.7046292,22.292447 C47.7731777,21.7645697 48.6416093,14.8851973 45.8758434,14.4723218 Z" id="Path" fill="#FFC197"></path>
                    <rect id="Rectangle" fill="#2B478B" x="52.3588741" y="0" width="55.5314813" height="104.388679" rx="8.89891114"></rect>
                    <path d="M105.137805,7.99639848 L105.137805,95.6947284 C105.137805,98.669694 102.717524,101.102643 99.7573047,101.102643 L60.4872052,101.102643 C57.5307619,101.102643 55.1114247,98.669694 55.1114247,95.6947284 L55.1114247,7.99639848 C55.1114247,5.02143283 57.5307619,2.58754142 60.4872052,2.58754142 L99.7610805,2.58754142 C102.717524,2.58754142 105.137805,5.02143283 105.137805,7.99639848 Z" id="Path" fill="#C0D8FB"></path>
                    <path d="M99.7610805,2.58754142 L60.9733381,101.102643 L60.4872052,101.102643 C57.5307619,101.102643 55.1114247,98.669694 55.1114247,95.6947284 L55.1114247,7.99639848 C55.1114247,5.02143283 57.5307619,2.58754142 60.4872052,2.58754142 L99.7610805,2.58754142 Z" id="Path" fill="#CBE1FD"></path>
                    <rect id="Rectangle" fill="#2B478B" x="69.4858557" y="0.611772087" width="21.2765743" height="5.23729694" rx="2.61864847"></rect>
                    <path d="M114.940699,49.3310765 L113.856103,49.7430093 L106.571661,52.5096519 C106.402439,52.5736762 106.229738,52.6281214 106.054378,52.6727283 C103.604218,53.3010792 101.071711,51.994615 100.166978,49.6355486 L100.060312,49.3527571 C99.0942372,46.7931939 100.379786,43.9350456 102.937463,42.9560154 L109.733885,40.3769577 L110.227569,40.1884301 L111.312165,39.7774399 C113.874444,38.8175978 116.732133,40.1029951 117.71024,42.6553139 L117.816906,42.9381053 C118.780598,45.4963165 117.495973,48.3516645 114.940699,49.3310765 Z" id="Path" fill="#FFB27D"></path>
                    <path d="M109.020261,49.498866 C107.803512,49.9588734 105.601283,50.7761406 104.423237,50.9448728 C104.090023,50.9929473 103.479289,50.8119608 102.902537,50.1851065 C102.558941,49.8080513 102.229503,49.2745182 101.985965,48.5336047 C101.867189,48.1917021 101.783689,47.8385805 101.736762,47.4797354 C101.690759,47.0620221 101.704426,46.6399002 101.777352,46.2260268 C101.852822,45.8344886 102.110955,45.5024634 102.472097,45.3324059 C102.472097,45.3324059 102.472097,45.3324059 102.477761,45.3324059 C103.730379,44.7347734 105.419101,44.0070568 106.899211,43.6007798 C107.92245,43.3179884 108.95796,43.7704547 109.281734,44.6640755 L109.434653,45.0816642 L110.217186,47.2214525 C110.54096,48.1075323 110.014237,49.1246387 109.020261,49.498866 Z" id="Path" fill="#FFD3B6"></path>
                    <path d="M109.020261,49.498866 C107.803512,49.9588734 105.601283,50.7761406 104.423237,50.9448728 C104.090023,50.9929473 103.479289,50.8119608 102.902537,50.1851065 C102.841181,50.0427682 102.785488,49.8919461 102.732627,49.7316976 C102.613069,49.3900227 102.529549,49.0368194 102.483425,48.6778283 C102.437033,48.2601627 102.450382,47.8380301 102.523071,47.4241197 C102.599179,47.0323581 102.857508,46.7001813 103.21876,46.5295562 C103.21876,46.5295562 103.21876,46.5295562 103.224423,46.5295562 C104.476098,45.9319237 106.16482,45.2042071 107.645873,44.7988728 C108.254256,44.6178302 108.912019,44.7218172 109.434653,45.0816642 L110.217186,47.2214525 C110.54096,48.1075323 110.014237,49.1246387 109.020261,49.498866 Z" id="Path" fill="#FFC197"></path>
                    <path d="M111.633107,59.5662403 L106.010956,61.0951992 C104.294877,61.5550572 102.529166,60.5441092 102.059592,58.8328679 L101.885906,58.1975299 C101.425409,56.4838306 102.437762,54.7205689 104.15138,54.251647 L109.772587,52.7226881 C111.487475,52.262454 113.252815,53.2708428 113.724894,54.9803062 L113.897637,55.6156443 C114.362318,57.3307255 113.349384,59.0978448 111.633107,59.5662403 Z" id="Path" fill="#FFB27D"></path>
                    <path d="M108.592652,59.2919326 C107.559974,59.5671829 105.692846,60.0535842 104.714916,60.1063719 C104.359048,60.1261673 103.646368,59.8235805 103.181002,58.8913114 C103.057341,58.6387411 102.962356,58.3731516 102.897818,58.0994955 C102.824595,57.830243 102.782472,57.553506 102.772273,57.2746872 C102.762741,56.9500782 102.802524,56.6259011 102.890266,56.3131964 C102.986734,56.0098938 103.22298,55.771171 103.525543,55.6712599 C103.527394,55.671784 103.529355,55.671784 103.531206,55.6712599 C104.601643,55.2942047 106.041163,54.8426811 107.286229,54.6258743 C108.145221,54.4750522 108.960792,54.8879277 109.161853,55.5958489 L109.307221,56.1011029 L109.740492,57.6196927 C109.944385,58.3200728 109.436541,59.0675848 108.592652,59.2919326 Z" id="Path" fill="#FFD3B6"></path>
                    <path d="M108.592652,59.2919326 C107.559974,59.5671829 105.692846,60.0535842 104.714916,60.1063719 C104.359048,60.1261673 103.646368,59.8235805 103.181002,58.8913114 C103.115357,58.638187 103.077377,58.3787033 103.067728,58.1174056 C103.060811,57.7924217 103.103137,57.4682613 103.193273,57.1559148 C103.290673,56.8533806 103.526619,56.6153103 103.82855,56.514921 L103.834214,56.514921 C104.905594,56.1378657 106.345114,55.6863421 107.589236,55.470478 C108.300973,55.3451071 108.983447,55.6071605 109.310996,56.1020455 L109.744268,57.6206354 C109.944385,58.3200728 109.436541,59.0675848 108.592652,59.2919326 Z" id="Path" fill="#FFC197"></path>
                    <path d="M19.5397111,124.14543 C19.5397111,124.14543 31.1115622,135.212943 38.9123435,139.485921 L44.8186223,135.302493 L44.8186223,141.473945 C44.8186223,141.473945 56.433895,143.525125 60.0973549,141.473945 L60.0973549,124.639372 L27.4688692,108.309111 L19.5397111,124.14543 Z" id="Path" fill="#1C4F8C"></path>
                    <path d="M62.5601136,140.129743 C58.0659801,141.049758 48.3801359,137.524291 48.3801359,137.524291 L49.9423688,122.45528 L38.992579,134.973513 C33.4232894,132.899709 24.7106549,127.501221 19.5349914,124.140716 C16.958015,122.465649 15.2570218,121.29772 15.2570218,121.29772 C22.5612867,109.560934 29.9080293,98.5801434 29.9080293,98.5801434 C32.0649491,102.887999 37.1688726,106.62933 42.7022923,109.621263 C51.8972839,114.594621 62.2759855,117.500774 62.2759855,117.500774 C62.2759855,126.458663 62.5601136,140.129743 62.5601136,140.129743 Z" id="Path" fill="#DCEAFF"></path>
                    <path d="M114.763236,38.5718059 C114.723591,38.5868881 114.683001,38.600085 114.642411,38.613282 L107.27207,40.5032712 C104.030555,41.334678 100.679541,39.5832565 99.824325,36.6120614 L99.3853894,35.089701 C98.5632113,32.2363356 100.329337,29.2528862 103.342417,28.2857396 L105.774969,27.6617132 L110.712758,26.3938651 C113.95333,25.5615157 117.304343,27.3129372 118.159559,30.2841323 L118.598495,31.8064927 C119.409346,34.6240378 117.699857,37.5631832 114.763236,38.5718059 Z" id="Path" fill="#FFB27D"></path>
                    <path d="M111.385793,36.5177976 L107.8054,38.128766 L107.782745,38.1344218 C107.640123,38.1723839 107.495469,38.2022816 107.349474,38.2239725 C107.290005,38.2324562 107.228648,38.2390547 107.168236,38.2456531 C107.143099,38.2475246 107.117857,38.2475246 107.09272,38.2456531 C106.902662,38.2393558 106.728453,38.1382308 106.628916,37.9764235 C106.52938,37.8146162 106.517802,37.6137255 106.598091,37.4415829 C106.948887,36.6823092 107.020414,35.8238443 106.800096,35.0171179 L106.715141,34.7060473 C106.715984,34.7029615 106.715984,34.6997067 106.715141,34.6966209 L106.438564,33.6813998 C106.227313,32.9006968 105.772733,32.2073917 105.140637,31.7018599 C105.067009,31.641531 104.991493,31.5859154 104.914089,31.532185 C104.206129,31.0429559 104.386423,29.9344135 105.215209,29.7044099 L105.237863,29.6978114 L109.167516,29.1039494 C110.138838,28.8400108 111.07429,29.5865801 111.338595,30.5574973 L111.653874,31.7131715 L112.325964,34.1791126 C112.587438,35.1603988 112.357115,36.253859 111.385793,36.5177976 Z" id="Path" fill="#FFD3B6"></path>
                    <path d="M111.385793,36.5177976 L107.8054,38.128766 L107.782745,38.1344218 C107.698734,38.1504467 107.436317,38.193808 107.09272,38.2475384 C106.902662,38.241241 106.728453,38.1401161 106.628916,37.9783088 C106.52938,37.8165015 106.517802,37.6156108 106.598091,37.4434682 C106.948887,36.6841945 107.020414,35.8257296 106.800096,35.0190031 L106.715141,34.7079326 C106.715984,34.7048468 106.715984,34.701592 106.715141,34.6985062 L106.438564,33.683285 C106.227313,32.9025821 105.772733,32.209277 105.140637,31.7037451 C105.274904,31.5064028 105.476034,31.3641333 105.707005,31.303124 L105.72966,31.2965255 L109.659313,30.7026635 C110.477715,30.480201 111.264023,30.9750859 111.65765,31.7150568 L112.32974,34.1809979 C112.587438,35.1603988 112.357115,36.253859 111.385793,36.5177976 Z" id="Path" fill="#FFC197"></path>
                    <path d="M52.3579302,76.8561072 C52.3579302,76.8561072 50.7532196,62.8390796 49.2665025,60.1063719 C47.7797853,57.3736642 46.529055,51.8997651 48.8105759,47.832282 C51.0920967,43.7647988 51.8812368,35.9390179 51.8812368,35.9390179 C52.7666594,44.8695706 50.1047278,51.5029145 51.9718557,53.2590492 C52.0407639,53.3240912 52.1700847,53.2929841 52.3494347,53.1770397 L52.3579302,76.8561072 Z" id="Path" fill="#EFA26F"></path>
                    <rect id="Rectangle" fill="#699DEE" x="28.9216043" y="24.6839197" width="62.8602889" height="29.3433795" rx="4.26973179"></rect>
                    <path d="M164.8,165.272727 L121.372756,165.272727 C119.290408,163.878566 108.475603,156.512792 104.004124,151.02004 C103.060177,149.855882 99.5873942,139.826213 96.9245186,131.682763 C95.2603393,126.592518 93.9038869,122.243186 93.6801714,121.244932 C93.6008798,120.897099 93.5480187,120.208031 93.5159245,119.275762 L93.5159245,119.265393 C93.4026508,115.935052 93.5574582,109.512859 93.7169853,104.411302 L93.7169853,104.387736 L93.7169853,104.320809 C93.7245369,104.096461 93.7311445,103.875884 93.7386961,103.660962 L93.7386961,103.653421 C93.7386961,103.631741 93.7386961,103.609117 93.7386961,103.587437 C93.7679585,102.701357 93.7962769,101.867122 93.8227074,101.106413 C93.8897277,99.208883 93.9463645,97.7798437 93.9699632,97.221802 L93.9794027,96.9606913 L93.9794027,96.9606913 C94.0483109,96.9220431 96.1372664,95.8087876 98.9294628,97.8175492 C99.6034413,98.3030078 100.226447,99.4756496 100.794703,101.005551 C101.158123,101.983067 101.498888,103.103863 101.816054,104.285931 C103.035634,108.832275 103.910673,114.268468 104.377927,115.722959 C105.133085,118.079554 114.006191,128.417465 114.565008,129.060344 C114.573503,129.071656 114.582943,129.082025 114.591438,129.092394 L114.591438,112.755534 L107.889412,94.8454115 L105.137805,87.4928348 L103.754922,83.8005216 C102.291024,81.3334138 100.988183,78.7744835 99.8545313,76.1397023 C99.0757747,74.3090992 98.3621505,72.3436989 97.9203831,70.4753903 C97.814661,70.0304651 97.724986,69.5902532 97.653246,69.155697 L97.653246,69.155697 C97.3917725,67.5767783 97.3700617,66.1119188 97.7372573,64.9194817 C98.3857491,62.7957182 99.8469797,62.3960397 100.969333,62.439401 C101.085439,62.439401 101.197768,62.4535406 101.306322,62.4657949 C101.415284,62.4787979 101.52317,62.4995893 101.629152,62.528009 C101.824711,62.5798865 102.012363,62.657887 102.187025,62.759898 C102.187025,62.759898 102.187025,62.759898 102.187025,62.759898 C102.477564,62.9298598 102.72651,63.1623595 102.915753,63.4404826 C102.915753,63.4404826 103.8597,64.6762811 105.134973,66.3372093 C105.97131,67.4306694 106.948296,68.707944 107.88658,69.9390293 C109.557367,72.132548 111.109216,74.1809004 111.53588,74.7785329 C113.841944,78.0202652 120.05123,88.5844097 120.05123,88.5844097 L127.319625,88.8888817 C128.470913,88.9368655 129.566928,89.394995 130.409165,90.1802959 C132.993693,92.5906213 138.565814,97.8071802 139.249232,98.5820287 C139.249232,98.836541 143.579119,100.916 146.924468,102.767342 C149.317375,103.77785 153.862482,107.355161 153.862482,107.355161 C154.806429,108.185625 155.521941,109.012319 155.885361,109.80602 C157.443818,113.192918 161.670814,142.649414 163.691806,157.211287 C164.341242,161.888657 164.766962,165.030469 164.8,165.272727 Z" id="Path" fill="#FFB27D"></path>
                    <path d="M120.054062,88.5844097 C120.054062,88.5844097 126.787238,99.560487 127.678325,100.055372 C128.569411,100.550257 132.035586,101.241211 132.432044,100.055372 C132.828502,98.8695333 120.054062,88.5844097 120.054062,88.5844097 Z" id="Path" fill="#EFA26F"></path>
                    <path d="M153.899295,107.386268 L153.865313,107.355161 C153.865313,107.355161 149.320207,103.773136 146.9273,102.767342 C143.855695,101.070593 139.955305,99.1758907 139.336075,98.6810057 C140.049699,99.4945023 145.063948,105.161642 146.993376,105.586772 C148.688706,105.960057 152.541899,107.011098 153.899295,107.386268 Z" id="Path" fill="#EFA26F"></path>
                    <path d="M114.595214,129.088624 L114.595214,112.754592 C114.595214,112.754592 118.480501,119.245597 118.777845,122.804998 C119.075188,126.3644 117.160863,132.126746 114.595214,129.088624 Z" id="Path" fill="#EFA26F"></path>
                    <path d="M100.494528,69.1519265 C99.9281592,68.179124 98.908696,66.4182762 98.5584915,65.4285062 C98.4640968,65.1457148 98.4725923,64.590501 98.8161892,63.9956964 C99.0703174,63.5700164 99.4191412,63.2084524 99.8356523,62.9389992 C100.057856,62.7826214 100.298084,62.6534956 100.551164,62.5544029 C100.844545,62.4465725 101.154196,62.38951 101.466793,62.3856707 C101.786256,62.3988476 102.078668,62.5684794 102.248382,62.8390796 C102.248382,62.8390796 102.248382,62.8390796 102.248382,62.8390796 C102.92236,63.8203658 103.775689,65.1560839 104.355272,66.3645458 C104.757394,67.1997231 104.630905,68.1649845 104.045658,68.588229 L103.771913,68.7880682 L102.372983,69.8080026 C101.795287,70.2350176 100.957062,69.9437424 100.494528,69.1519265 Z" id="Path" fill="#FFD3B6"></path>
                    <path d="M100.494528,69.1519265 C99.9281592,68.179124 98.908696,66.4182762 98.5584915,65.4285062 C98.4640968,65.1457148 98.4725923,64.590501 98.8161892,63.9956964 C98.9108428,63.9174804 99.0094579,63.8441722 99.1116447,63.7760618 C99.3336002,63.6190331 99.5738712,63.489568 99.8271568,63.3905228 C100.120562,63.2827815 100.430197,63.2257218 100.742786,63.2217906 C101.06258,63.2355163 101.355168,63.405398 101.525318,63.6761421 L101.525318,63.6761421 C102.200241,64.6574283 103.053569,65.9931464 103.633153,67.202551 C103.89085,67.7370268 103.93144,68.3242903 103.772857,68.7890109 L102.373927,69.8089452 C101.795287,70.2350176 100.957062,69.9437424 100.494528,69.1519265 Z" id="Path" fill="#FFC197"></path>
                    <path d="M53.0801688,38.248481 C53.0801688,43.271795 49.002193,47.3439955 43.9719015,47.3439955 C38.9416101,47.3439955 34.8637531,43.271795 34.8637531,38.248481 C34.8637531,33.2251671 38.9416101,29.152848 43.9719015,29.152848 C46.3913069,29.1406029 48.7152006,30.0949068 50.426001,31.8033341 C52.1368014,33.5117614 53.0924308,35.8324316 53.0801688,38.248481 Z" id="Path" fill="#FFFFFF"></path>
                    <path d="M47.6315856,42.5469105 L47.5607895,42.4705568 C47.4560114,42.3904326 47.3512332,42.3404728 46.9302327,42.2678896 C46.7159566,42.2320694 46.4186132,42.1896507 45.9966687,42.1349777 C45.9966687,42.1349777 45.902274,42.1246087 45.8579084,42.1208381 L45.7521863,42.1114117 C45.631361,42.048255 45.6002108,41.5458289 45.6011547,41.0198369 C45.6011547,40.9802461 45.6011547,40.9406553 45.6011547,40.9010645 C45.6011547,40.7012252 45.6096503,40.5042139 45.6172018,40.3269979 C45.6172018,40.3156863 45.6172018,40.3053172 45.6172018,40.2940056 C45.8777313,40.3156863 46.0504737,40.313801 46.0504737,40.313801 C46.5356627,40.2751528 46.8386698,38.9761976 46.9472237,37.9260988 C47.0961719,37.54333 47.1773024,37.1376026 47.1869864,36.7270633 C47.2030587,36.3670361 47.0928995,36.0126821 46.8754837,35.725039 C46.7803188,35.6044315 46.6650418,35.501113 46.5347187,35.4196243 C46.5045124,35.3894599 46.4733621,35.3621234 46.440324,35.3357295 C45.9891171,34.8351887 44.1540834,32.959339 42.9477186,34.0443154 C42.9165683,33.935912 42.5248302,32.7180237 40.625608,33.1167596 C40.7436014,33.1045053 41.5856025,33.0224958 41.8291409,33.365616 C41.7961028,33.3514764 41.0607678,33.0253237 40.5972896,33.3100004 C40.3830135,33.4400844 40.2499169,33.7106215 40.1744012,33.9952982 C40.1744012,33.9952982 40.1744012,33.9952982 40.1744012,34.000954 C40.1744012,34.0066099 40.1744012,34.000954 40.1744012,34.0056672 L40.1744012,34.0056672 C40.1739591,34.0084779 40.1739591,34.0113403 40.1744012,34.014151 C40.1659056,34.0527991 40.1564662,34.0914473 40.1479706,34.1300955 C40.1479706,34.1357513 40.1479706,34.1414071 40.1479706,34.1480056 C40.1479706,34.154604 40.1479706,34.1480056 40.1479706,34.1527188 L40.1479706,34.1527188 C40.0964689,34.3887474 40.0887901,34.6322117 40.1253159,34.871009 C40.1961119,35.1679399 40.7200027,36.0521344 41.0692633,36.0521344 C41.2063539,36.0471743 41.3411015,36.0151361 41.4657212,35.9578706 C41.4081136,36.126404 41.3608289,36.2982817 41.3241291,36.472551 C40.9550457,38.2060623 42.1085494,39.5229277 42.7060681,39.1967749 C43.0893107,38.9884519 43.3791026,39.6577249 43.3791026,39.6577249 L43.3791026,39.6577249 C43.3224657,40.9255731 42.9741491,41.7532093 42.7183394,41.959647 C42.6239446,41.970016 42.4257157,41.9945246 42.1755696,42.0341154 L42.1755696,42.0341154 C42.1755696,42.0341154 41.2948667,42.1283792 40.6246641,42.4215396 L40.608617,42.4281381 C40.4737875,42.481174 40.3467731,42.5522034 40.231038,42.639289 L40.231038,42.639289 L40.231038,42.639289 C40.1835836,42.6748833 40.142153,42.7178476 40.1083248,42.7665452 C40.0930097,42.7841804 40.0797122,42.8034666 40.068679,42.8240461 C39.8449635,43.2501185 39.6193601,43.8901697 39.4031961,44.6405096 C42.2856248,46.7838304 46.2673988,46.6591941 49.0097488,44.3398081 C48.503793,43.3104473 47.9393124,42.7797421 47.6315856,42.5469105 Z" id="Path" fill="#2B478B"></path>
                    <path d="M62.6847147,8.0736948 L62.1249539,8.47431597 L61.5585855,8.07746535 C61.6876335,7.89588143 61.8967873,7.78799365 62.1197622,7.78799365 C62.342737,7.78799365 62.5518908,7.89588143 62.6809389,8.07746535 L62.6847147,8.0736948 Z" id="Path" fill="#FFFFFF"></path>
                    <path d="M62.1249539,6.80867439 C61.5829445,6.80863576 61.0749524,7.07248149 60.7637817,7.51565308 L61.118706,7.76450952 C61.3473161,7.43761644 61.7208926,7.24222871 62.1201626,7.24072837 C62.5194325,7.23922802 62.8944709,7.43180267 63.1255381,7.75696842 L63.4795184,7.50339879 C63.1666904,7.06713801 62.6622749,6.80843521 62.1249539,6.80867439 L62.1249539,6.80867439 Z" id="Path" fill="#FFFFFF"></path>
                    <path d="M62.1249539,4.95073299 C60.97806,4.95048915 59.9029982,5.50838002 59.2440264,6.44575891 L59.5998946,6.69273007 C60.175765,5.87502089 61.1128798,5.3868584 62.1139391,5.38311221 C63.1149984,5.37936602 64.0557506,5.86050111 64.6377419,6.67387731 L64.9898342,6.42030768 C64.3287706,5.49694258 63.2616056,4.94952825 62.1249539,4.95073299 L62.1249539,4.95073299 Z" id="Path" fill="#FFFFFF"></path>
                    <path d="M62.1249539,5.96784081 C61.3087681,5.96763524 60.5431308,6.36257207 60.0709244,7.02736658 L60.4258486,7.27622302 C60.8160716,6.7301673 61.4455517,6.40495046 62.1173202,6.40233511 C62.7890887,6.39971976 63.4210889,6.72002537 63.8155637,7.26302609 L64.1676561,7.01134173 C63.6944967,6.35561671 62.9343055,5.96727829 62.1249539,5.96784081 L62.1249539,5.96784081 Z" id="Path" fill="#FFFFFF"></path>
                    <path d="M142.9816,158.565858 L130.008931,165.272727 L121.372756,165.272727 C119.290408,163.878566 108.475603,156.512792 104.004124,151.02004 C103.060177,149.855882 99.5873942,139.826213 96.9245186,131.682763 L96.9245186,131.682763 C97.2784988,132.763969 104.717748,148.586149 106.835966,150.384702 C108.954184,152.183255 120.075772,162.654079 123.147377,162.544733 C126.122699,162.442928 141.962137,158.80246 142.943842,158.577169 L142.9816,158.565858 Z" id="Path" fill="#EFA26F"></path>
                    <path d="M93.7339764,103.583666 L93.7339764,103.583666 C94.5221725,103.295219 95.6294227,103.104806 96.1674728,104.002197 C97.0047541,105.40013 93.8925595,117.725122 93.5036532,119.272934 L93.7339764,103.583666 Z" id="Path" fill="#EFA26F"></path>
                    <path d="M93.9784588,96.9569207 L93.7103777,104.412245 C93.7103777,104.412245 95.2801622,104.666757 96.1731364,104.001255 C97.0661107,103.335752 96.593193,96.8692554 93.9784588,96.9569207 Z" id="Path" fill="#FFC197"></path>
                    <path d="M62.5601136,140.129743 C58.0659801,141.049758 48.3801359,137.524291 48.3801359,137.524291 L49.9423688,122.45528 L38.992579,134.973513 C33.4232894,132.899709 24.7106549,127.501221 19.5349914,124.140716 C32.7983962,122.696595 42.7022923,109.624091 42.7022923,109.624091 C51.8972839,114.597449 62.2759855,117.503602 62.2759855,117.503602 C62.2759855,126.458663 62.5601136,140.129743 62.5601136,140.129743 Z" id="Path" fill="#CBE1FD"></path>
                    <path d="M31.7166325,126.442639 C31.7231554,125.706761 32.1729762,125.047281 32.8563094,124.771765 C33.5396427,124.496249 34.3218899,124.658966 34.8382301,125.184029 C35.3545703,125.709091 35.5032981,126.493076 35.2150506,127.170352 C34.926803,127.847628 34.2583572,128.284789 33.5214599,128.277955 C33.0382839,128.273974 32.5765265,128.078278 32.2379706,127.734003 C31.8994147,127.389728 31.7118543,126.925137 31.7166325,126.442639 L31.7166325,126.442639 Z" id="Path" fill="#F99746"></path>
                </g>
                <text id="Apply" font-family="Lato-Regular, Lato" font-size="7.46398064" font-weight="normal" fill="#FFFFFF">
                    <tspan x="59.5887006" y="41.4044697">Apply</tspan>
                </text>
            </g>
        </g>
    </g>
</svg>