<?xml version="1.0" encoding="UTF-8"?>
<svg width="154px" height="172px" viewBox="0 0 154 172" version="1.1" xmlns="http://www.w3.org/2000/svg" xmlns:xlink="http://www.w3.org/1999/xlink">
    <title>123359DE-05DB-4812-B462-A04B741F5BE7</title>
    <g id="User-app" stroke="none" stroke-width="1" fill="none" fill-rule="evenodd">
        <g id="UA0.3" transform="translate(-103.000000, -155.000000)" fill-rule="nonzero">
            <g id="Vault" transform="translate(103.000000, 155.000000)">
                <path d="M73.9555053,0.63199353 L2.63953037,41.6808285 C1.08314356,42.6893415 0.104425182,44.37842 0.00608186721,46.2256507 L0.00608186721,125.463112 C0.104425182,127.310343 1.08314356,128.999422 2.63953037,130.007935 L73.9555053,171.032531 C75.6107128,171.869262 77.5671948,171.869262 79.2224023,171.032531 L150.538377,130.007935 C152.0994,129.002132 153.082902,127.312601 153.183989,125.463112 L153.183989,46.2256507 C153.085646,44.37842 152.106928,42.6893415 150.550541,41.6808285 L79.2224023,0.63199353 C77.5686224,-0.21066451 75.6092851,-0.21066451 73.9555053,0.63199353 Z" id="Path" fill="#083161"></path>
                <path d="M76.5889538,86.3655212 L76.5889538,171.632447 C75.6736432,171.657449 74.7671177,171.44885 73.9555053,171.026471 L2.6334485,129.977636 C1.07926785,128.96704 0.10125684,127.279182 0,125.432814 L0,46.2256507 C0.093341626,44.4879813 0.955419492,42.8810667 2.35368261,41.8383823 C1.17380037,42.6806894 1.26502838,43.916881 2.62128477,44.6985905 L73.9433415,85.7231863 C74.7554772,86.1594394 75.666434,86.3806129 76.5889538,86.3655212 L76.5889538,86.3655212 Z" id="Path" fill="#14457F"></path>
                <path d="M150.538377,41.6808285 L79.2224023,0.63199353 C77.5686224,-0.21066451 75.6092851,-0.21066451 73.9555053,0.63199353 L2.63953037,41.6808285 C1.17988224,42.5170758 1.17988224,43.8744627 2.63953037,44.71071 L73.9555053,85.7353058 C75.6107128,86.5720371 77.5671948,86.5720371 79.2224023,85.7353058 L150.538377,44.71071 C151.998025,43.8744627 151.998025,42.5170758 150.538377,41.6808285 Z" id="Path" fill="#2B68B0"></path>
                <path d="M82.8471951,89.3348051 L146.913584,52.4793262 C147.643408,52.0612026 148.233349,52.4005493 148.233349,53.2367966 L148.233349,124.136024 C148.183004,125.060059 147.692568,125.904507 146.913584,126.408435 L82.8471951,163.233616 C82.1173711,163.651739 81.5274299,163.312392 81.5274299,162.476145 L81.5274299,91.6072162 C81.5777753,90.6831814 82.0682114,89.8387337 82.8471951,89.3348051 Z" id="Path" fill="#263238"></path>
                <path d="M82.7438034,91.6072162 C82.7980342,91.1210564 83.0566334,90.6806131 83.4553818,90.3952636 L147.010894,53.8367131 L147.010894,124.129965 C146.956663,124.616124 146.698064,125.056568 146.299316,125.341917 L82.7438034,161.900468 L82.7438034,91.6072162 Z" id="Path" fill="#21599C"></path>
                <path d="M81.7585409,95.6430184 L95.6677712,87.6441312 C95.9496914,87.4805 96.2981311,87.4805 96.5800513,87.6441312 L98.8303422,88.9409205 L84.2338608,97.061003 L81.7585409,95.6430184 Z" id="Path" fill="#455A64"></path>
                <path d="M99.0553712,89.4438808 L99.0553712,98.9940674 C99.0262197,99.5484939 98.732246,100.055445 98.2647285,100.357514 L84.2338608,108.429118 L84.2338608,97.061003 L98.2647285,88.9893986 C98.6965411,88.7409483 99.0553712,88.9409205 99.0553712,89.4438808 Z" id="Path" fill="#263238"></path>
                <polygon id="Path" fill="#000000" points="81.7585409 95.6430184 84.227779 97.061003 84.227779 108.429118 81.7585409 107.011134"></polygon>
                <path d="M90.1758451,97.982087 C90.8570142,97.5882024 91.3922186,97.9093698 91.3922186,98.6910793 C91.3497423,99.5542114 90.8982704,100.345914 90.1758451,100.824116 C89.494676,101.218 88.9594717,100.902893 88.9594717,100.115124 C89.0019479,99.2519914 89.4534199,98.4602886 90.1758451,97.982087 Z" id="Path" fill="#455A64"></path>
                <path d="M95.1143213,95.1642972 C95.8015723,94.7704126 96.3306947,95.09158 96.3306947,95.8732894 C96.2891843,96.736701 95.8374818,97.528808 95.1143213,98.006326 C94.4331522,98.4002106 93.8979478,98.0851029 93.8979478,97.2973338 C93.9404241,96.4342016 94.391896,95.6424988 95.1143213,95.1642972 L95.1143213,95.1642972 Z" id="Path" fill="#455A64"></path>
                <path d="M81.5274299,95.7702735 L78.1094206,97.7396965 C77.1685524,98.2809327 76.0093551,98.2809327 75.068487,97.7396965 L72.5688395,96.3035326 C72.2869194,96.1399014 71.9384796,96.1399014 71.6565595,96.3035326 L69.4184323,97.5882024 L75.068487,100.581725 C76.0093551,101.122962 77.1685524,101.122962 78.1094206,100.581725 L84.0027499,97.1943178 L81.5274299,95.7702735 Z" id="Path" fill="#455A64"></path>
                <path d="M69.9658004,109.022975 L75.068487,111.955901 C76.0093551,112.497137 77.1685524,112.497137 78.1094206,111.955901 L84.0027499,108.568493 L84.0027499,97.2003775 L78.1094206,100.618084 C77.1685524,101.15932 76.0093551,101.15932 75.068487,100.618084 L69.9658004,97.6851586 C69.5279059,97.4306485 69.1751576,97.6366805 69.1751576,98.1396408 L69.1751576,107.689827 C69.2146568,108.233046 69.5072821,108.726459 69.9658004,109.022975 L69.9658004,109.022975 Z" id="Path" fill="#37474F"></path>
                <path d="M76.6071994,112.361905 C77.134811,112.358711 77.6525102,112.218792 78.1094206,111.955901 L84.0027499,108.568493 L84.0027499,97.2003775 L78.1094206,100.618084 C77.6518702,100.87944 77.1345842,101.019246 76.6071994,101.024088 L76.6071994,112.361905 Z" id="Path" fill="#263238"></path>
                <path d="M81.7585409,143.957509 L95.6677712,135.964682 C95.9496914,135.801051 96.2981311,135.801051 96.5800513,135.964682 L98.8303422,137.261471 L84.2338608,145.381554 L81.7585409,143.957509 Z" id="Path" fill="#455A64"></path>
                <path d="M99.0553712,137.764431 L99.0553712,147.314618 C99.0252443,147.868756 98.731508,148.375298 98.2647285,148.678065 L84.2338608,156.749669 L84.2338608,145.381554 L98.2647285,137.309949 C98.6965411,137.055439 99.0553712,137.261471 99.0553712,137.764431 Z" id="Path" fill="#263238"></path>
                <polygon id="Path" fill="#000000" points="81.7585409 143.957509 84.227779 145.381554 84.227779 156.749669 81.7585409 155.325625"></polygon>
                <path d="M90.1758451,146.302638 C90.8570142,145.908753 91.3922186,146.22992 91.3922186,147.01163 C91.3497423,147.874762 90.8982704,148.666465 90.1758451,149.144666 C89.494676,149.538551 88.9594717,149.217384 88.9594717,148.435674 C89.0019479,147.572542 89.4534199,146.780839 90.1758451,146.302638 Z" id="Path" fill="#455A64"></path>
                <path d="M95.1143213,143.460609 C95.8015723,143.066724 96.3306947,143.387892 96.3306947,144.169601 C96.2891843,145.033013 95.8374818,145.82512 95.1143213,146.302638 C94.4331522,146.696522 93.8979478,146.375355 93.8979478,145.593645 C93.9404241,144.730513 94.391896,143.93881 95.1143213,143.460609 Z" id="Path" fill="#455A64"></path>
                <path d="M81.5274299,144.096884 L78.1094206,146.066307 C77.1685524,146.607543 76.0093551,146.607543 75.068487,146.066307 L72.5688395,144.624083 C72.285297,144.466552 71.940102,144.466552 71.6565595,144.624083 L69.4184323,145.908753 L75.068487,148.908336 C76.0093551,149.449572 77.1685524,149.449572 78.1094206,148.908336 L84.0027499,145.514868 L81.5274299,144.096884 Z" id="Path" fill="#455A64"></path>
                <path d="M69.9658004,157.337466 L75.068487,160.276451 C76.0093551,160.817687 77.1685524,160.817687 78.1094206,160.276451 L84.0027499,156.882984 L84.0027499,145.514868 L78.1094206,148.908336 C77.1685524,149.449572 76.0093551,149.449572 75.068487,148.908336 L69.9658004,145.969351 C69.5279059,145.7209 69.1751576,145.920872 69.1751576,146.423833 L69.1751576,155.974019 C69.2043092,156.528446 69.4982828,157.035397 69.9658004,157.337466 L69.9658004,157.337466 Z" id="Path" fill="#37474F"></path>
                <path d="M76.6071994,160.682455 C77.1345842,160.677614 77.6518702,160.537807 78.1094206,160.276451 L84.0027499,156.882984 L84.0027499,145.514868 L78.1094206,148.908336 C77.6518702,149.169692 77.1345842,149.309498 76.6071994,149.31434 L76.6071994,160.682455 Z" id="Path" fill="#263238"></path>
                <path d="M124.854652,97.8851308 L125.268219,97.164019 L122.774653,95.7217954 L122.744244,95.7217954 L122.695589,95.7217954 L122.695589,95.7217954 C120.688573,94.6007392 117.933487,94.7825321 114.898635,96.5277438 C108.762031,100.060586 103.780982,108.64727 103.780982,115.712954 C103.780982,119.185198 104.997356,121.633342 106.931389,122.821056 L106.931389,122.821056 L107.004372,122.863474 L107.077354,122.905892 L109.589165,124.354176 L110.008814,123.620944 C111.732795,123.537051 113.407067,123.017827 114.874308,122.112063 C121.016994,118.579222 125.991961,109.992537 125.991961,102.926854 C126.057146,101.176533 125.665266,99.4393222 124.854652,97.8851308 Z" id="Path" fill="#263238"></path>
                <ellipse id="Oval" fill="#263238" transform="translate(117.751827, 110.925183) rotate(-60.000000) translate(-117.751827, -110.925183) " cx="117.751827" cy="110.925183" rx="15.6787789" ry="9.06593552"></ellipse>
                <ellipse id="Oval" fill="#37474F" transform="translate(117.350163, 110.704957) rotate(-60.000000) translate(-117.350163, -110.704957) " cx="117.350163" cy="110.704957" rx="15.6787789" ry="9.06593552"></ellipse>
                <path d="M118.517346,102.169383 C118.26799,102.26028 118.115943,102.054248 118.176762,101.708841 L118.687639,98.7637964 C118.740193,98.4269248 118.946975,98.1335553 119.24717,97.9699675 C119.490445,97.879071 119.642492,98.0911627 119.587755,98.4365692 L119.076878,101.375554 C119.021715,101.711372 118.815661,102.003708 118.517346,102.169383 L118.517346,102.169383 Z" id="Path" fill="#27DEBF"></path>
                <path d="M114.302612,105.350759 C114.243214,105.378792 114.174805,105.381012 114.113702,105.356889 C114.052599,105.332767 114.004281,105.284464 113.980273,105.223504 L113.159221,103.296499 C113.087054,102.971085 113.180314,102.63113 113.408578,102.387535 C113.645771,102.108786 113.913373,102.066367 114.016765,102.296638 L114.868226,104.253942 C114.940393,104.579356 114.847133,104.919311 114.618869,105.162906 C114.529617,105.249268 114.421306,105.313603 114.302612,105.350759 Z" id="Path" fill="#27DEBF"></path>
                <path d="M111.10355,110.834844 C111.059669,110.846133 111.01363,110.846133 110.969749,110.834844 L109.145189,110.665171 C108.926242,110.665171 108.859341,110.337944 108.993142,109.980418 C109.126943,109.622892 109.412791,109.374442 109.631738,109.374442 L111.456298,109.550175 C111.669164,109.550175 111.736064,109.877402 111.602263,110.234928 C111.525528,110.494527 111.345252,110.711387 111.10355,110.834844 Z" id="Path" fill="#27DEBF"></path>
                <path d="M107.947061,118.191397 C107.758523,118.264114 107.612558,118.155038 107.594313,117.912648 C107.603009,117.568999 107.757763,117.245196 108.020044,117.021862 L110.185188,115.373607 C110.440627,115.179695 110.665656,115.270591 110.683901,115.573579 C110.68079,115.918535 110.52499,116.244527 110.258171,116.464364 L108.093026,118.11262 C108.048477,118.145815 107.999304,118.172353 107.947061,118.191397 Z" id="Path" fill="#27DEBF"></path>
                <path d="M110.057469,123.093745 C109.981313,123.133612 109.89035,123.133612 109.814194,123.093745 C109.649984,122.96043 109.674311,122.584725 109.868931,122.251438 L111.523199,119.403349 C111.717819,119.070062 112.009748,118.900389 112.173959,119.033704 C112.338169,119.167019 112.313842,119.536664 112.119222,119.869951 L110.471036,122.70592 C110.376788,122.874727 110.232287,123.010233 110.057469,123.093745 Z" id="Path" fill="#27DEBF"></path>
                <path d="M114.776998,123.536108 C114.533723,123.627004 114.375595,123.420972 114.436413,123.075566 L114.94729,120.130521 C114.999829,119.79517 115.206884,119.503656 115.506822,119.342752 C115.756179,119.251855 115.908225,119.457887 115.847407,119.803294 L115.33653,122.742279 C115.285776,123.079871 115.078484,123.373963 114.776998,123.536108 L114.776998,123.536108 Z" id="Path" fill="#27DEBF"></path>
                <path d="M120.305415,119.336692 C120.247984,119.366866 120.180271,119.370855 120.119672,119.347632 C120.059073,119.324409 120.011494,119.276239 119.989158,119.215497 L119.162024,117.288492 C119.089894,116.961205 119.183024,116.619462 119.411381,116.373468 C119.648574,116.100779 119.916176,116.05836 120.019568,116.282571 L120.846701,118.209576 C120.919909,118.536888 120.826644,118.879127 120.597345,119.1246 C120.519969,119.219144 120.419418,119.292196 120.305415,119.336692 Z" id="Path" fill="#27DEBF"></path>
                <path d="M124.526231,112.131634 C124.482054,112.140291 124.436607,112.140291 124.39243,112.131634 L122.56787,111.955901 C122.355005,111.955901 122.282022,111.628673 122.415823,111.271147 C122.549624,110.913621 122.835472,110.665171 123.054419,110.665171 L124.878979,110.840904 C125.097927,110.840904 125.164827,111.168131 125.031026,111.525657 C124.95116,111.786941 124.769269,112.00529 124.526231,112.131634 Z" id="Path" fill="#27DEBF"></path>
                <path d="M123.668688,106.235484 C123.48015,106.302142 123.334185,106.199126 123.31594,105.956735 C123.318095,105.609844 123.473906,105.281612 123.74167,105.05989 L125.906815,103.417694 C126.162253,103.223782 126.381201,103.308619 126.399447,103.611607 C126.399841,103.959072 126.243543,104.28833 125.973716,104.508452 L123.814653,106.150648 C123.768526,106.183039 123.719691,106.211422 123.668688,106.235484 Z" id="Path" fill="#27DEBF"></path>
                <path d="M122.069157,102.50873 C121.993001,102.548597 121.902038,102.548597 121.825882,102.50873 C121.661672,102.375415 121.685999,101.99971 121.880619,101.666423 L123.528805,98.8365136 C123.723425,98.5032266 124.015354,98.3335532 124.185647,98.466868 C124.355939,98.6001828 124.325529,98.9698284 124.13091,99.3031153 L122.476642,102.139084 C122.383265,102.301976 122.24066,102.431338 122.069157,102.50873 Z" id="Path" fill="#27DEBF"></path>
                <path d="M122.774653,104.132746 L122.774653,104.132746 C121.716408,102.569328 119.697229,102.26028 117.380037,103.593428 C113.96811,105.556791 111.206942,110.325824 111.206942,114.252551 C111.206942,117.052161 112.617935,118.657999 114.667524,118.633759 L114.667524,118.633759 L119.417463,118.742835 L125.395938,107.835262 L122.774653,104.132746 Z" id="Path" fill="#263238"></path>
                <path d="M121.394069,107.532274 C118.677398,109.298927 116.967655,112.249159 116.790096,115.476623 C116.790096,118.403488 118.851849,119.591202 121.394069,118.130799 C124.111679,116.362213 125.821412,113.409746 125.998043,110.18039 C125.998043,107.283823 123.93629,106.071871 121.394069,107.532274 Z" id="Path" fill="#455A64"></path>
                <path d="M143.34961,87.6986691 C143.430342,85.6749309 142.378864,83.7732826 140.618852,82.7599622 L132.384004,78.0212275 L132.353594,78.0212275 L132.353594,78.0212275 C131.554709,77.670533 130.629201,77.7673582 129.920847,78.2757375 C127.850181,79.6219071 126.552166,81.8750394 126.429856,84.3355006 C126.429856,85.5474532 126.916405,86.4018798 127.68272,86.6988082 L127.68272,86.6988082 L127.737457,86.6988082 L135.643884,89.2014903 C137.395897,89.7566069 138.619353,91.3352842 138.715227,93.1645753 L139.60318,110.016776 L139.60318,110.016776 C139.568436,110.546604 139.832415,111.051689 140.288011,111.327104 C140.743607,111.602519 141.315149,111.602519 141.770745,111.327104 C142.226341,111.051689 142.490319,110.546604 142.455576,110.016776 L142.455576,110.016776 L143.34961,87.6986691 Z" id="Path" fill="#263238"></path>
            </g>
        </g>
    </g>
</svg>